# xmcd
# 
# Track frame offsets:
#     150
#     25593
#     48877
#     71560
#     91394
#     107600
#     135283
#     158853
#     184365
# 
# Disc length: 2775
# 
# Revision: 2
# Processed by: cddbd v1.5.2PL0 Copyright (c) Steve Scherf et al.
# Submitted via: fre:ac v1.0.17
# 
DISCID=6b0ad509
DTITLE=Amon Amarth - Bloodshed Over Bochum [Live]
DYEAR=2008
DGENRE=Death Metal
TTITLE0=Bastards of a Lying Breed [Live - Bloodshed Over Bochum]
TTITLE1=Masters of War [Live - Bloodshed Over Bochum]
TTITLE2=The Sound of Eight Hooves [Live - Bloodshed Over Bochum]
TTITLE3=Risen from the Sea [Live - Bloodshed Over Bochum]
TTITLE4=As Long as the Raven Flies [Live - Bloodshed Over Bochum]
TTITLE5=A Fury Divine [Live - Bloodshed Over Bochum]
TTITLE6=Annihilation of Hammerfest [Live - Bloodshed Over Bochum]
TTITLE7=The Fall Through Ginnungagap [Live - Bloodshed Over Bochum]
TTITLE8=Releasing Surtur's Fire [Live - Bloodshed Over Bochum]
EXTD=
EXTT0=
EXTT1=
EXTT2=
EXTT3=
EXTT4=
EXTT5=
EXTT6=
EXTT7=
EXTT8=
PLAYORDER=
